<?xml version="1.0" standalone="no"?>
<!DOCTYPE svg PUBLIC "-//W3C//DTD SVG 20010904//EN"
 "http://www.w3.org/TR/2001/REC-SVG-20010904/DTD/svg10.dtd">
<svg version="1.0" xmlns="http://www.w3.org/2000/svg"
 width="300.000000pt" height="127.000000pt" viewBox="0 0 300.000000 127.000000"
 preserveAspectRatio="xMidYMid meet">
<metadata>
Created by potrace 1.10, written by Peter Selinger 2001-2011
</metadata>
<g transform="translate(0.000000,127.000000) scale(0.100000,-0.100000)"
fill="#000000" stroke="none">
<path d="M1262 548 l2 -163 3 157 4 158 867 3 867 2 -872 3 -873 2 2 -162z"/>
<path d="M1311 623 c0 -18 -5 -33 -11 -33 -5 0 -10 -5 -10 -10 0 -6 11 -8 25
-6 17 3 25 0 25 -10 0 -8 -3 -13 -7 -13 -28 5 -35 -3 -30 -30 4 -20 2 -31 -8
-35 -12 -4 -12 -10 1 -42 14 -34 14 -37 -5 -50 -19 -14 -19 -16 -4 -62 19 -56
28 -69 36 -48 3 8 2 18 -4 22 -13 7 8 34 27 34 7 0 18 -8 23 -17 7 -12 10 -13
11 -4 0 8 6 11 16 7 12 -5 14 -1 9 17 -4 12 -11 26 -16 32 -16 17 -10 24 19
20 15 -2 33 -4 40 -4 6 -1 12 -11 12 -22 0 -16 -5 -20 -20 -16 -12 3 -20 0
-20 -8 0 -10 59 -29 66 -21 1 0 5 19 8 41 l7 41 -58 21 c-47 16 -57 24 -55 40
2 13 -4 22 -16 25 -15 4 -19 15 -19 47 0 26 -6 46 -16 54 -9 7 -18 23 -20 37
-4 21 -5 20 -6 -7z m55 -218 c4 -8 1 -21 -5 -29 -13 -16 -61 -27 -61 -15 0 5
7 9 15 9 8 0 15 8 15 18 0 33 26 44 36 17z"/>
<path d="M1678 529 c-32 -16 -58 -35 -58 -42 0 -23 40 -200 46 -206 4 -3 4 19
0 49 -21 163 -21 155 12 169 17 7 36 10 43 6 13 -9 29 12 29 38 0 22 -4 22
-72 -14z"/>
<path d="M1551 528 l-44 -18 7 -62 c3 -33 6 -76 6 -95 0 -20 4 -32 10 -28 6 3
10 24 10 46 0 21 4 39 9 39 16 0 18 -34 5 -95 -7 -33 -13 -74 -13 -92 -1 -39
-17 -48 -93 -56 -48 -5 -58 -3 -61 11 -3 12 -5 10 -6 -5 0 -13 -5 -23 -11 -23
-5 0 -10 -7 -10 -15 0 -19 7 -19 25 -2 7 8 46 17 85 21 40 3 76 8 80 11 4 3 7
27 6 55 -1 40 3 51 16 56 25 8 29 34 26 160 l-3 111 -44 -19z m29 -58 c0 -22
-4 -40 -10 -40 -5 0 -10 18 -10 40 0 22 5 40 10 40 6 0 10 -18 10 -40z"/>
<path d="M1970 450 l0 -90 29 0 c24 0 28 3 24 24 -8 38 17 42 44 7 22 -28 30
-31 79 -31 l54 0 0 90 0 90 -55 0 c-50 0 -58 -3 -90 -37 l-36 -38 3 38 c4 35
2 37 -24 37 l-28 0 0 -90z m180 -2 l-1 -83 -34 40 c-19 22 -35 44 -35 50 0 8
59 75 67 75 2 0 3 -37 3 -82z"/>
<path d="M2215 450 l-1 -90 59 0 c48 0 62 4 82 24 20 20 23 32 21 72 -5 64
-29 84 -105 84 l-56 0 0 -90z m109 34 c33 -33 11 -84 -37 -84 -32 0 -32 0 -32
50 0 48 1 50 27 50 15 0 34 -7 42 -16z"/>
<path d="M2395 448 l1 -92 59 3 c33 1 68 7 78 12 25 14 40 57 32 96 -9 49 -47
73 -114 73 l-56 0 0 -92z m106 42 c22 -12 26 -59 7 -78 -7 -7 -25 -12 -40 -12
-27 0 -28 2 -28 50 0 44 3 50 21 50 11 0 29 -5 40 -10z"/>
<path d="M2580 503 c0 -28 3 -34 10 -23 8 12 10 12 15 -2 10 -25 1 -63 -13
-60 -7 1 -12 -10 -12 -28 0 -23 4 -30 20 -30 19 0 20 7 20 90 0 83 -1 90 -20
90 -16 0 -20 -7 -20 -37z"/>
<path d="M2640 450 l0 -90 70 0 c63 0 70 2 70 20 0 17 -7 20 -50 20 -38 0 -50
4 -50 15 0 11 12 15 45 15 38 0 45 3 45 20 0 17 -7 20 -45 20 -33 0 -45 4 -45
15 0 11 12 15 50 15 43 0 50 3 50 20 0 18 -7 20 -70 20 l-70 0 0 -90z"/>
<path d="M2816 524 c-9 -8 -16 -26 -16 -40 0 -23 23 -40 83 -58 9 -3 17 -10
17 -16 0 -14 -53 -13 -67 1 -13 13 -33 4 -33 -16 0 -21 33 -35 79 -35 32 0 44
5 57 25 27 42 12 63 -69 89 -10 3 -17 12 -14 19 4 13 17 13 54 2 27 -9 45 21
22 36 -23 15 -96 10 -113 -7z"/>
<path d="M1736 463 c-47 -56 -48 -58 -42 -108 3 -27 9 -80 12 -117 l7 -68 -27
0 c-16 0 -25 -4 -21 -10 3 -5 21 -10 40 -10 47 0 135 -20 135 -30 0 -5 8 -8
18 -8 9 1 33 -2 52 -5 34 -6 34 -6 7 5 -26 11 -27 15 -21 55 5 33 3 43 -7 43
-24 0 -37 -14 -42 -45 -4 -21 -5 -17 -3 12 1 36 -2 43 -21 48 -13 3 -23 13
-23 21 0 11 6 15 20 11 11 -3 20 -1 20 4 0 15 -40 10 -47 -7 -3 -8 4 -25 15
-37 29 -31 15 -49 -34 -45 l-39 3 -13 89 c-7 49 -10 91 -7 94 2 3 14 -7 26
-21 21 -27 62 -36 74 -17 3 5 16 15 28 21 21 12 21 11 5 -8 -10 -11 -18 -27
-18 -36 0 -13 5 -15 24 -7 28 10 37 5 29 -18 -4 -15 -3 -15 6 -2 15 21 14 45
-3 59 -11 9 -12 20 -6 42 8 27 4 37 -37 87 -25 31 -49 58 -52 59 -3 1 -28 -23
-55 -54z m76 -30 c24 -21 23 -65 -1 -87 -18 -17 -20 -17 -40 3 -25 25 -27 58
-4 83 20 22 22 22 45 1z"/>
<path d="M1264 165 l0 -170 6 135 c3 74 9 129 13 123 5 -7 14 -13 20 -13 7 1
2 9 -10 19 -12 10 -23 31 -26 47 -2 16 -4 -47 -3 -141z"/>
<path d="M1970 310 c0 -16 7 -20 30 -20 l30 0 0 -70 c0 -68 1 -70 25 -70 24 0
25 2 25 70 0 68 1 70 25 70 18 0 25 5 25 20 0 18 -7 20 -80 20 -73 0 -80 -2
-80 -20z"/>
<path d="M2184 320 c-12 -5 -29 -19 -38 -32 -58 -83 47 -173 143 -123 52 26
57 91 12 136 -31 30 -73 37 -117 19z m92 -55 c15 -23 15 -27 0 -50 -11 -17
-26 -25 -44 -25 -35 0 -52 16 -52 50 0 34 17 50 52 50 18 0 33 -8 44 -25z"/>
<path d="M2325 313 c5 -10 19 -51 32 -91 22 -63 28 -73 46 -70 17 2 25 15 37
56 8 28 18 52 21 52 4 0 13 -24 21 -52 11 -39 20 -54 34 -56 17 -2 26 11 52
81 18 46 32 87 32 91 0 3 -11 6 -25 6 -21 0 -27 -7 -37 -45 -7 -25 -15 -45
-19 -45 -3 0 -12 20 -19 45 -11 39 -16 45 -40 45 -25 0 -29 -5 -39 -46 -13
-51 -22 -49 -41 9 -9 30 -16 37 -37 37 -20 0 -24 -3 -18 -17z"/>
<path d="M2620 256 c0 -41 -3 -81 -6 -90 -5 -13 1 -16 26 -16 l33 0 -7 50 c-4
28 -3 50 1 50 4 -1 25 -23 46 -50 29 -38 45 -50 65 -50 l27 0 0 90 0 90 -29 0
c-28 0 -29 0 -23 -47 3 -27 9 -56 12 -65 4 -11 3 -18 -4 -18 -6 0 -10 3 -8 8
1 4 -18 33 -43 65 -31 39 -52 57 -67 57 -22 0 -23 -4 -23 -74z"/>
<path d="M1323 267 c-12 -19 -14 -95 -2 -102 7 -5 6 -11 -2 -21 -9 -11 -8 -15
5 -20 24 -9 31 2 18 31 -7 15 -8 27 -2 30 6 4 10 1 10 -4 0 -6 5 -11 10 -11
11 0 12 67 2 90 -9 19 -29 23 -39 7z"/>
<path d="M1587 273 c-15 -14 -6 -23 23 -23 32 0 40 14 14 24 -20 8 -29 8 -37
-1z"/>
<path d="M2820 240 c0 -26 3 -30 28 -29 l27 1 -25 8 c-17 5 -19 8 -7 9 9 1 17
6 17 11 0 6 -8 10 -17 11 -12 1 -10 4 7 9 l25 8 -27 1 c-25 1 -28 -3 -28 -29z"/>
<path d="M2887 263 c-12 -11 -7 -40 9 -53 12 -11 18 -10 32 4 16 16 15 16 -8
14 -17 -2 -25 2 -25 12 0 8 8 14 18 14 9 -1 17 2 17 7 0 10 -34 12 -43 2z"/>
<path d="M2950 240 c0 -27 3 -31 23 -28 16 2 22 10 22 28 0 18 -6 26 -22 28
-20 3 -23 -1 -23 -28z"/>
<path d="M1567 208 c-14 -9 -14 -9 36 -13 27 -3 37 0 34 8 -4 14 -51 17 -70 5z"/>
<path d="M1571 161 c-23 -15 -2 -30 36 -28 39 2 55 20 26 31 -10 4 -19 2 -21
-4 -3 -7 -8 -8 -16 -1 -6 6 -18 6 -25 2z"/>
<path d="M1309 59 c-25 -25 -20 -43 14 -47 21 -3 28 2 33 22 11 46 -12 60 -47
25z m41 -14 c0 -16 -27 -32 -37 -22 -3 4 -3 13 0 22 8 20 37 20 37 0z"/>
<path d="M1471 49 c-6 -18 -11 -33 -11 -34 0 -1 6 -2 14 -2 8 0 17 9 19 19 3
10 1 18 -4 18 -4 0 -6 7 -3 15 4 8 4 15 1 15 -3 0 -10 -14 -16 -31z"/>
<path d="M1570 73 c0 -9 -27 -21 -47 -21 -8 0 -23 -24 -23 -37 0 -5 5 -3 10 5
6 10 10 11 10 3 0 -7 4 -13 9 -13 5 0 8 7 7 16 0 9 5 19 13 22 9 3 11 -2 7
-19 -3 -13 1 -9 10 10 8 18 13 36 10 39 -4 3 -6 1 -6 -5z"/>
<path d="M1899 63 c0 -11 -3 -13 -6 -6 -3 10 -8 9 -20 -3 -11 -11 -19 -12 -26
-5 -19 19 -35 12 -46 -19 -12 -36 -5 -41 9 -5 5 14 14 25 20 25 14 0 13 -13
-2 -28 -9 -9 -9 -12 0 -12 7 0 12 5 12 11 0 5 5 7 10 4 6 -3 10 0 10 7 0 9 3
9 10 -2 8 -12 10 -12 10 5 1 18 2 18 10 -3 13 -30 16 -28 17 13 1 19 -1 35 -3
35 -2 0 -4 -8 -5 -17z"/>
<path d="M2160 60 c-19 -14 -28 -16 -38 -7 -11 9 -17 7 -28 -8 -8 -10 -14 -24
-13 -29 0 -6 5 -1 11 12 6 12 15 22 20 22 5 0 6 -10 3 -22 -4 -16 -3 -19 3 -9
8 11 10 11 15 0 4 -10 6 -9 6 3 1 9 6 20 13 24 8 5 9 0 6 -14 -10 -37 8 -24
19 13 6 19 10 35 10 35 -1 0 -13 -9 -27 -20z"/>
<path d="M2217 73 c-9 -17 -17 -68 -9 -54 8 11 10 11 15 0 4 -10 6 -10 6 -1 1
14 31 17 31 2 0 -5 5 -10 11 -10 8 0 8 5 -1 15 -7 8 -9 15 -4 15 4 0 3 5 -4
12 -8 8 -15 8 -28 -3 -15 -12 -16 -12 -10 9 7 21 2 31 -7 15z"/>
<path d="M2360 74 c0 -13 -49 -34 -56 -23 -3 5 -11 9 -17 9 -7 0 -6 -4 3 -10
9 -6 11 -10 3 -10 -7 0 -10 -7 -6 -16 4 -11 8 -12 13 -4 6 9 9 9 13 -1 4 -10
6 -9 6 3 1 9 6 20 13 24 8 5 9 0 6 -14 -4 -12 -3 -22 1 -22 9 0 32 62 26 69
-3 2 -5 0 -5 -5z"/>
<path d="M2501 49 c-15 -43 -13 -49 5 -19 14 23 14 24 9 2 -6 -20 -3 -22 22
-20 16 1 37 12 46 24 16 22 16 22 -24 20 -29 -2 -38 1 -35 11 3 7 1 13 -3 13
-5 0 -14 -14 -20 -31z"/>
<path d="M1425 50 c-4 -6 -10 -8 -15 -5 -4 3 -10 -2 -14 -10 -8 -21 -27 -19
-20 3 5 14 4 15 -5 2 -16 -22 -13 -30 9 -30 11 0 20 6 20 13 0 8 4 7 10 -3 6
-9 10 -10 10 -3 0 6 7 19 16 27 8 9 11 16 5 16 -5 0 -13 -5 -16 -10z"/>
<path d="M1663 53 c-7 -3 -13 -13 -13 -23 0 -15 7 -19 30 -17 16 1 30 5 30 9
0 3 2 12 5 20 5 13 -27 20 -52 11z"/>
<path d="M1752 53 c-7 -2 -17 -13 -22 -23 -14 -27 16 -20 36 8 15 22 11 25
-14 15z"/>
<path d="M1930 50 c9 -6 11 -10 3 -10 -7 0 -10 -7 -6 -16 5 -13 7 -13 14 -2 5
7 9 9 9 4 0 -6 6 -2 13 9 15 20 34 5 21 -16 -4 -7 -1 -10 6 -7 8 2 14 13 15
25 1 15 -4 21 -22 21 -13 0 -23 -5 -23 -11 0 -7 -4 -7 -12 1 -7 7 -17 12 -22
12 -6 0 -4 -5 4 -10z"/>
<path d="M2058 53 c8 -3 5 -11 -10 -24 -13 -10 -17 -18 -10 -19 6 0 12 6 12
13 0 9 2 9 9 -1 7 -11 10 -10 15 3 10 27 7 35 -11 34 -11 0 -13 -3 -5 -6z"/>
<path d="M2372 48 c-7 -7 -12 -19 -11 -27 0 -11 2 -12 6 -3 2 6 11 12 19 12 8
0 14 7 14 15 0 18 -12 19 -28 3z"/>
<path d="M2415 52 c-12 -12 -4 -24 9 -13 10 9 15 8 19 -3 3 -8 1 -17 -6 -20
-7 -2 -4 -5 7 -5 13 -1 16 4 12 16 -4 9 -2 20 5 23 6 4 0 8 -15 8 -14 0 -28
-3 -31 -6z"/>
<path d="M2625 43 c-10 -29 -4 -37 10 -13 8 14 14 19 15 11 0 -11 3 -11 15 -1
12 10 15 9 15 -5 0 -12 -6 -16 -20 -12 -11 3 -20 1 -20 -4 0 -17 59 -4 75 16
16 19 16 19 10 -5 -5 -25 -5 -25 6 -2 14 26 33 30 25 4 -5 -14 0 -18 24 -20
18 -1 30 3 30 10 0 6 3 8 7 5 3 -4 12 1 20 11 13 16 14 15 9 -8 l-5 -25 19 25
c20 25 20 25 20 3 0 -27 27 -31 37 -6 6 15 7 15 13 -2 4 -10 9 -14 13 -9 3 6
2 16 -3 24 -14 22 -228 22 -240 1 -8 -14 -9 -14 -10 1 0 21 -56 22 -65 1z"/>
</g>
</svg>
