<?xml version="1.0" standalone="no"?>
<!DOCTYPE svg PUBLIC "-//W3C//DTD SVG 20010904//EN"
 "http://www.w3.org/TR/2001/REC-SVG-20010904/DTD/svg10.dtd">
<svg version="1.0" xmlns="http://www.w3.org/2000/svg"
 width="300.000000pt" height="119.000000pt" viewBox="0 0 300.000000 119.000000"
 preserveAspectRatio="xMidYMid meet">
<metadata>
Created by potrace 1.10, written by Peter Selinger 2001-2011
</metadata>
<g transform="translate(0.000000,119.000000) scale(0.100000,-0.100000)"
fill="#000000" stroke="none">
<path d="M64 1098 c1 -32 0 -58 -3 -58 -22 -1 -31 -18 -22 -42 6 -16 6 -29 0
-35 -6 -6 -4 -24 7 -48 16 -39 10 -54 -23 -55 -18 0 -16 -15 7 -60 27 -52 25
-78 -5 -102 -20 -15 -24 -25 -19 -46 8 -32 24 -52 25 -31 1 26 7 47 18 66 10
17 10 16 11 -4 0 -16 6 -23 20 -23 17 0 20 7 20 41 0 38 1 40 28 37 19 -2 26
-8 24 -21 -2 -14 2 -16 21 -12 19 5 29 0 46 -21 11 -15 21 -22 21 -15 0 6 -9
19 -21 29 -11 9 -34 29 -50 45 -31 29 -49 33 -65 17 -13 -13 -28 3 -38 38 -5
15 -3 22 6 22 8 1 6 6 -6 15 -17 13 -17 15 -3 21 12 4 17 18 17 51 0 49 21 57
26 10 1 -16 17 -44 33 -63 40 -44 39 -55 -1 -43 -44 12 -47 4 -4 -11 20 -6 39
-17 43 -24 7 -11 64 -38 88 -42 6 -1 27 -9 48 -17 41 -18 46 -29 32 -92 -6
-29 -84 -29 -96 0 -7 17 -8 16 -8 -7 -1 -27 1 -28 48 -28 27 0 56 -3 64 -6 18
-6 23 8 32 87 l6 55 -101 33 -100 33 0 39 c0 35 -3 40 -29 45 -27 6 -28 8 -23
50 3 31 1 44 -8 44 -9 0 -10 10 -6 35 6 33 5 35 -19 35 -21 0 -25 5 -26 33 -1
17 -5 43 -10 57 -6 18 -8 10 -5 -32z m11 -116 c-6 -16 -7 -16 -17 1 -5 10 -7
26 -3 35 6 16 7 16 17 -1 5 -10 7 -26 3 -35z m35 23 c0 -14 -4 -25 -10 -25 -5
0 -10 4 -10 9 0 5 -3 16 -6 25 -4 11 -1 16 10 16 10 0 16 -9 16 -25z"/>
<path d="M702 939 c-57 -25 -105 -49 -108 -51 -2 -3 12 -89 32 -191 33 -167
39 -187 57 -187 14 0 17 3 9 13 -9 10 -22 64 -36 147 -2 14 -7 36 -10 50 -3
14 -7 39 -10 55 -2 17 -7 43 -11 58 -6 22 -3 32 16 48 12 11 34 22 48 25 14 4
36 13 49 21 31 19 48 11 55 -27 10 -49 29 -25 25 31 -2 26 -6 50 -8 52 -3 2
-51 -18 -108 -44z"/>
<path d="M485 938 l-70 -27 3 -165 c3 -162 3 -166 -17 -166 -12 0 -21 -4 -21
-10 0 -16 36 -11 52 8 13 13 15 33 12 92 -6 91 4 220 17 220 5 0 9 -26 9 -58
0 -46 4 -63 20 -77 11 -10 20 -14 20 -9 0 5 5 2 10 -6 6 -8 9 -60 8 -116 -2
-98 -3 -102 -28 -116 -24 -13 -26 -21 -24 -63 1 -26 6 -50 9 -53 4 -4 5 16 4
45 -4 50 -3 52 29 64 18 7 35 22 38 33 2 12 3 113 2 226 l-3 206 -70 -28z m45
-103 c0 -60 -3 -75 -15 -75 -12 0 -15 15 -15 75 0 60 3 75 15 75 12 0 15 -15
15 -75z"/>
<path d="M1210 800 l0 -160 45 0 45 0 0 49 c0 79 20 83 71 12 43 -59 45 -60
92 -61 26 0 47 3 47 6 0 3 -27 42 -60 85 -33 43 -60 82 -60 87 0 4 27 34 60
67 33 33 60 63 60 67 0 4 -22 8 -49 8 -47 0 -51 -2 -105 -61 l-56 -60 0 60 0
61 -45 0 -45 0 0 -160z m61 85 c1 -8 3 -19 4 -25 1 -5 3 -14 4 -19 2 -16 51
-5 81 18 39 28 41 27 20 -15 -18 -35 -18 -36 2 -72 11 -21 25 -44 32 -52 10
-13 9 -13 -9 0 -11 8 -31 25 -45 38 -14 12 -28 22 -31 22 -16 0 -59 -44 -59
-60 0 -33 -19 -32 -25 2 -10 57 -1 178 13 178 6 0 13 -7 13 -15z"/>
<path d="M1520 800 l0 -160 40 0 40 0 0 160 0 160 -40 0 -40 0 0 -160z m58 23
c1 -89 -6 -135 -18 -128 -4 2 -8 50 -8 105 0 77 3 100 13 100 10 0 13 -20 13
-77z"/>
<path d="M1620 801 l0 -161 88 0 c150 1 212 47 212 160 0 111 -51 152 -202
158 l-98 4 0 -161z m90 119 c0 -5 -9 -15 -20 -22 -17 -11 -20 -24 -20 -94 0
-68 3 -84 20 -99 29 -26 25 -37 -12 -33 l-33 3 -3 119 c-2 89 1 121 10 128 18
11 58 10 58 -2z m176 -61 c34 -54 27 -95 -22 -138 -19 -17 -40 -31 -47 -31 -8
1 -7 5 3 13 49 38 64 107 35 157 -32 56 -5 55 31 -1z m-97 20 c17 -6 36 -19
41 -29 11 -21 13 -70 4 -95 -9 -23 -57 -45 -99 -45 l-35 0 0 90 0 90 29 0 c15
0 42 -5 60 -11z"/>
<path d="M1940 801 l0 -161 92 0 c154 0 212 44 212 162 1 107 -54 149 -205
156 l-99 5 0 -162z m60 100 c-5 -11 -10 -44 -10 -73 0 -81 -17 -92 -19 -12 -2
78 5 104 25 104 11 0 12 -4 4 -19z m102 -21 c44 -13 58 -34 58 -89 0 -52 -34
-81 -96 -81 l-44 0 0 90 c0 101 1 102 82 80z m103 -40 c19 -36 19 -61 1 -85
-12 -16 -13 -13 -9 32 3 31 1 53 -6 57 -6 4 -11 11 -11 17 0 17 9 9 25 -21z
m-202 -163 c-3 -4 -11 -3 -19 4 -15 12 -19 41 -7 53 8 8 32 -45 26 -57z"/>
<path d="M2257 953 c-2 -5 -1 -37 2 -73 6 -64 6 -65 14 -24 7 41 28 70 40 57
10 -9 9 -221 -1 -227 -15 -9 -29 9 -40 49 l-10 40 -1 -57 c-1 -32 -2 -61 -3
-65 -2 -5 16 -9 40 -11 l42 -3 0 160 0 161 -39 0 c-22 0 -42 -3 -44 -7z"/>
<path d="M2360 800 l0 -161 128 3 127 3 3 32 3 32 -88 3 c-86 3 -88 3 -88 28
0 24 2 25 75 25 l75 0 3 32 3 32 -78 3 c-76 3 -78 4 -78 28 0 24 2 25 83 28
l82 3 0 34 0 35 -125 0 -125 0 0 -160z m83 123 c4 -3 1 -13 -6 -22 -27 -32
-28 -51 -1 -76 l25 -24 -20 -20 c-25 -25 -27 -63 -5 -82 14 -12 14 -14 -3 -20
-35 -13 -43 8 -43 122 0 92 3 109 18 118 20 12 27 13 35 4z"/>
<path d="M2683 941 c-23 -14 -34 -30 -39 -56 -10 -54 17 -85 97 -111 50 -16
65 -26 67 -42 3 -19 -1 -22 -30 -22 -18 0 -48 9 -67 21 l-34 21 -26 -27 -26
-26 25 -19 c39 -30 87 -43 143 -37 41 3 56 11 79 36 58 65 25 128 -81 157 -46
13 -61 22 -61 36 0 14 8 18 35 18 19 0 46 -5 60 -12 23 -10 29 -9 52 14 l25
26 -27 18 c-43 28 -151 31 -192 5z m152 -22 c5 -6 -4 -8 -24 -5 -19 2 -48 0
-65 -5 -27 -7 -32 -14 -32 -38 0 -25 6 -33 39 -47 21 -10 48 -18 58 -19 11 -1
30 -11 41 -22 29 -30 18 -90 -20 -105 -53 -20 -162 -4 -162 24 0 6 7 7 18 2
56 -24 142 -10 142 25 0 19 -39 61 -57 61 -7 0 -31 7 -53 16 -33 13 -41 22
-46 50 -11 59 33 88 116 77 19 -2 39 -9 45 -14z"/>
<path d="M802 825 l-91 -104 19 -148 c10 -81 21 -174 25 -207 l7 -58 -46 3
c-30 3 -46 0 -46 -7 0 -7 30 -14 73 -18 115 -12 221 -35 233 -51 18 -24 34
-18 34 13 0 29 20 82 31 82 4 0 3 -17 -3 -37 -16 -64 -15 -65 32 -78 25 -7 56
-16 69 -21 16 -5 22 -4 18 3 -4 6 -27 17 -52 24 -39 12 -45 17 -45 41 0 15 5
28 11 28 12 0 8 83 -6 128 -7 19 -4 22 23 22 25 0 32 6 41 31 13 39 13 39 1
39 -6 0 -15 -12 -20 -26 -7 -16 -16 -24 -24 -21 -8 3 -22 -3 -31 -13 -14 -15
-14 -22 -5 -40 13 -25 1 -40 -32 -40 -18 0 -23 -22 -19 -76 1 -12 -5 -24 -13
-27 -9 -4 -16 -3 -16 2 0 12 20 113 26 133 4 13 1 16 -10 12 -23 -9 -76 18
-76 38 0 20 30 24 47 7 12 -12 33 -4 33 12 0 5 -7 9 -15 9 -9 0 -18 6 -21 14
-4 12 -10 10 -30 -7 -33 -29 -30 -50 12 -84 35 -28 36 -29 25 -70 -6 -23 -16
-45 -21 -48 -10 -6 -143 14 -157 24 -5 3 -17 81 -27 174 -9 92 -20 183 -23
201 -5 30 0 39 53 93 33 33 65 58 72 56 7 -3 11 1 10 8 -5 21 32 22 47 2 20
-25 18 -32 -5 -26 -61 16 -110 -38 -110 -123 0 -43 4 -55 32 -83 28 -29 37
-32 71 -28 39 5 81 33 72 48 -3 4 -1 10 5 14 5 3 10 24 10 46 0 28 4 39 13 36
7 -2 12 -23 12 -57 0 -72 19 -75 33 -5 l12 56 -84 103 -84 104 -90 -103z m137
-61 c37 -47 23 -131 -26 -153 -54 -25 -102 49 -82 124 17 59 73 74 108 29z"/>
<path d="M142 670 c-8 -13 -23 -20 -42 -20 -17 0 -39 -9 -51 -21 -18 -18 -20
-28 -14 -66 8 -56 14 -73 26 -73 13 0 11 24 -4 39 -8 10 -8 12 0 7 6 -3 14 -2
18 4 3 6 -1 13 -9 16 -9 3 -16 10 -16 15 0 12 39 35 71 43 21 4 28 1 37 -19
12 -26 38 -36 28 -10 -6 17 9 21 19 5 11 -17 25 -11 25 10 0 18 -4 20 -35 14
-28 -5 -36 -3 -41 11 -4 10 -1 21 7 26 21 13 39 11 39 -6 0 -8 5 -15 10 -15
13 0 13 16 0 41 -14 25 -52 24 -68 -1z"/>
<path d="M976 584 c-19 -18 -21 -70 -4 -80 7 -5 9 -2 6 8 -5 11 6 17 43 24 27
6 49 10 49 9 0 -1 -5 -17 -11 -34 -9 -25 -16 -31 -30 -28 -11 3 -19 1 -19 -4
0 -5 11 -9 24 -9 48 0 66 95 23 122 -20 13 -65 9 -81 -8z"/>
<path d="M1213 583 c-3 -6 -3 -22 -1 -35 3 -21 7 -23 51 -20 l47 4 0 -126 0
-126 46 0 46 0 -3 123 -3 122 34 1 c19 1 41 2 48 3 6 0 12 14 12 30 l0 30
-136 3 c-98 2 -138 0 -141 -9z m175 -22 c1 -1 -4 -16 -11 -33 -7 -18 -12 -63
-11 -100 3 -74 -4 -111 -17 -102 -5 3 -9 45 -9 95 0 73 -3 92 -18 107 -26 26
-17 39 26 36 20 -1 38 -2 40 -3z"/>
<path d="M1806 593 c-2 -2 11 -38 29 -81 18 -42 45 -112 60 -154 26 -76 28
-78 60 -78 33 0 34 1 64 93 35 103 37 114 18 98 -8 -6 -18 -7 -22 -3 -5 4 -5
2 -2 -4 9 -16 -42 -144 -57 -144 -7 0 -32 44 -55 98 -55 125 -57 132 -38 132
8 0 26 -24 40 -54 24 -50 47 -79 47 -59 0 4 -12 42 -27 84 l-26 76 -44 0 c-24
0 -45 -2 -47 -4z"/>
<path d="M1987 515 c-14 -44 -23 -82 -21 -84 7 -8 32 33 43 70 13 42 34 64 55
56 8 -3 26 -31 40 -61 34 -71 50 -72 29 -3 -9 28 -19 63 -22 76 -6 20 -14 23
-53 25 l-46 2 -25 -81z"/>
<path d="M2191 526 c-13 -39 -26 -77 -29 -84 -2 -7 1 -10 10 -7 9 4 27 33 41
66 25 57 56 84 43 37 -3 -13 -6 -30 -6 -38 0 -13 -1 -13 -10 0 -7 11 -10 8
-10 -16 0 -17 -3 -34 -7 -38 -4 -4 -17 -33 -28 -63 -11 -31 -26 -58 -32 -61
-12 -3 -18 8 -58 105 -25 59 -48 67 -31 10 51 -165 47 -158 84 -155 33 3 33 3
88 148 31 80 56 149 57 154 1 5 -18 10 -43 11 l-45 2 -24 -71z"/>
<path d="M1559 567 c-148 -100 -71 -297 113 -285 142 10 211 145 128 250 -47
60 -176 79 -241 35z m214 -57 c6 -11 17 -20 23 -20 6 0 10 -12 9 -27 -1 -16
-3 -38 -3 -51 -2 -23 -71 -106 -72 -85 0 6 5 15 10 18 12 7 40 71 40 91 0 7
-5 25 -12 41 -6 15 -11 31 -10 35 1 4 -7 10 -18 13 -11 4 -20 11 -20 16 0 14
38 -8 53 -31z m-203 12 c0 -4 -7 -18 -16 -31 -12 -17 -15 -36 -11 -72 7 -55
-4 -64 -22 -20 -16 37 -5 105 16 97 8 -3 11 -1 8 4 -3 6 -3 15 0 20 7 12 25
13 25 2z m158 -28 c52 -59 12 -144 -68 -144 -103 0 -126 136 -30 173 28 11 75
-3 98 -29z"/>
<path d="M2330 451 c0 -77 -3 -146 -6 -155 -5 -13 3 -16 46 -16 49 0 52 1 46
23 -3 12 -6 51 -6 87 -1 59 -2 63 -15 46 -9 -12 -15 -42 -15 -75 0 -88 -18
-47 -23 52 -7 147 9 172 68 112 19 -19 35 -37 35 -41 0 -4 20 -26 44 -49 59
-58 86 -40 91 65 3 56 4 62 15 55 6 -4 10 -57 10 -126 0 -149 -6 -151 -111
-37 -42 45 -78 77 -82 71 -3 -5 26 -49 64 -96 70 -85 72 -87 115 -87 l44 0 0
155 0 155 -46 0 -47 0 5 -90 c3 -49 3 -90 -1 -89 -3 0 -39 41 -79 90 -69 85
-74 89 -112 89 l-40 0 0 -139z"/>
<path d="M135 517 c-8 -42 -12 -44 -31 -19 -8 10 -13 12 -14 5 0 -7 1 -14 2
-15 1 -2 -4 -14 -12 -27 -19 -36 -22 -130 -5 -155 23 -32 18 -45 -20 -52 -19
-3 -38 -10 -41 -15 -6 -11 -6 -11 34 0 20 6 32 6 32 0 0 -5 9 -9 20 -9 11 0
20 7 20 15 0 8 6 15 13 15 7 0 5 5 -5 10 -18 11 -33 63 -23 80 4 7 14 -2 24
-21 10 -18 24 -35 31 -37 9 -3 10 0 4 9 -12 20 -6 109 8 127 10 12 10 14 1 9
-8 -5 -14 2 -19 20 -3 15 -8 34 -10 42 -3 8 0 17 5 20 6 4 6 12 1 21 -6 10
-10 3 -15 -23z m5 -76 c17 -42 10 -77 -15 -73 -24 5 -23 3 -25 27 -8 74 16
102 40 46z"/>
<path d="M542 494 c-12 -8 -22 -22 -22 -31 0 -9 3 -13 7 -10 3 4 13 1 21 -6
11 -8 14 -8 9 0 -10 15 13 22 41 12 18 -7 22 -5 22 11 0 18 -26 40 -47 40 -5
0 -19 -7 -31 -16z"/>
<path d="M330 479 c0 -24 23 -21 28 4 2 10 -3 17 -12 17 -10 0 -16 -9 -16 -21z"/>
<path d="M2680 435 l0 -55 40 0 c22 0 40 5 40 10 0 6 -13 10 -30 10 -20 0 -30
5 -30 15 0 10 10 15 30 15 17 0 30 5 30 10 0 6 -13 10 -30 10 -16 0 -30 5 -30
10 0 6 14 10 30 10 17 0 30 5 30 10 0 6 -18 10 -40 10 l-40 0 0 -55z"/>
<path d="M2794 466 c-32 -49 24 -107 70 -73 11 8 16 19 12 26 -6 9 -11 8 -21
-5 -18 -26 -45 -11 -45 26 0 23 4 30 19 30 11 0 23 -5 26 -10 4 -6 11 -8 16
-4 16 9 -11 34 -37 34 -14 0 -30 -10 -40 -24z"/>
<path d="M2900 440 c0 -57 14 -69 59 -54 20 7 27 17 29 42 4 43 -12 62 -54 62
l-34 0 0 -50z m65 -5 c0 -23 -5 -31 -22 -33 -20 -3 -23 1 -23 33 0 32 3 36 23
33 17 -2 22 -10 22 -33z"/>
<path d="M0 472 c0 -5 12 -15 26 -22 22 -12 27 -12 34 0 6 8 10 20 10 25 0 6
-5 3 -10 -5 -8 -12 -13 -13 -30 -2 -23 14 -30 15 -30 4z"/>
<path d="M514 385 c-19 -14 -18 -15 6 -34 25 -20 25 -20 32 0 9 25 25 24 33
-1 6 -18 8 -19 31 -4 29 20 30 30 4 44 -14 7 -26 8 -39 0 -13 -7 -22 -7 -26 0
-8 14 -18 13 -41 -5z"/>
<path d="M180 355 c-1 -16 -1 -40 0 -52 1 -14 -4 -23 -13 -23 -14 0 -27 -20
-27 -41 0 -5 9 -9 20 -9 13 0 20 7 20 19 0 22 13 25 174 42 63 6 115 17 123
24 15 16 17 45 3 45 -5 0 -10 -9 -10 -20 0 -17 -7 -20 -42 -21 -24 0 -85 -6
-135 -12 l-93 -13 -6 36 c-8 52 -12 58 -14 25z"/>
<path d="M508 299 c-26 -14 -22 -26 13 -44 29 -16 31 -15 36 6 l6 22 17 -24
c17 -22 19 -22 44 -6 32 21 33 33 5 48 -17 8 -27 8 -47 -2 -20 -11 -26 -11
-29 -1 -5 14 -22 15 -45 1z"/>
<path d="M356 149 c-11 -36 -25 -76 -31 -91 -4 -11 -3 -18 4 -18 6 0 11 8 11
18 1 16 1 16 14 -1 20 -26 27 -21 11 9 -10 19 -11 34 -3 56 6 16 8 32 4 35 -3
3 -7 0 -10 -8z"/>
<path d="M506 135 c-4 -16 -11 -22 -21 -18 -21 8 -55 -25 -55 -53 0 -28 10
-35 38 -28 15 4 27 23 41 65 11 32 16 59 11 59 -4 0 -11 -11 -14 -25z m-16
-39 c0 -28 -12 -46 -31 -46 -21 0 -24 12 -9 41 12 22 40 26 40 5z"/>
<path d="M1042 101 c-11 -34 -17 -61 -13 -61 9 0 45 110 38 116 -3 3 -14 -22
-25 -55z"/>
<path d="M1076 105 c-10 -31 -15 -59 -13 -62 7 -6 39 95 35 108 -2 6 -12 -15
-22 -46z"/>
<path d="M1563 142 c-3 -14 -13 -22 -28 -22 -27 0 -55 -29 -55 -57 0 -24 17
-33 44 -23 19 6 62 107 51 119 -3 3 -8 -5 -12 -17z m-25 -59 c-2 -20 -9 -29
-25 -31 -27 -4 -31 19 -7 42 23 24 36 19 32 -11z"/>
<path d="M1622 101 c-11 -34 -17 -61 -13 -61 9 0 45 110 38 116 -3 3 -14 -22
-25 -55z"/>
<path d="M1875 137 c-4 -16 -12 -24 -20 -21 -19 8 -53 -13 -60 -36 -9 -28 10
-48 39 -43 18 4 27 17 40 60 10 30 15 57 12 60 -3 3 -8 -6 -11 -20z m-15 -38
c0 -23 -22 -49 -40 -49 -24 0 -25 8 -4 38 16 23 44 30 44 11z"/>
<path d="M2144 137 c-10 -12 -19 -29 -20 -37 -1 -8 -4 -26 -9 -39 -4 -15 -4
-21 3 -17 6 3 13 20 17 36 4 17 11 30 16 30 6 0 7 5 3 12 -4 6 1 17 11 25 11
7 14 13 9 13 -6 0 -19 -10 -30 -23z"/>
<path d="M61 124 c-41 -52 -17 -102 40 -82 29 10 53 54 47 85 -2 12 -14 19
-34 21 -25 2 -37 -3 -53 -24z m74 5 c12 -18 -16 -69 -41 -75 -46 -12 -57 16
-23 60 21 27 53 34 64 15z"/>
<path d="M2355 126 c-9 -10 -11 -20 -18 -73 -1 -6 2 -12 8 -12 5 -1 10 7 11
17 2 45 5 52 19 52 11 0 13 -8 8 -31 -10 -51 41 -62 67 -14 19 36 6 59 -30 52
-18 -4 -34 -1 -42 7 -10 9 -16 10 -23 2z m90 -26 c3 -5 1 -19 -5 -30 -14 -25
-50 -27 -50 -2 0 33 40 56 55 32z"/>
<path d="M160 84 c-10 -29 -10 -38 0 -44 22 -13 48 1 59 32 17 47 12 57 -7 18
-9 -19 -25 -36 -34 -38 -15 -3 -16 0 -7 28 6 17 9 33 6 36 -3 3 -10 -11 -17
-32z"/>
<path d="M241 81 c-13 -45 -5 -55 10 -12 6 18 21 36 33 41 19 8 19 9 -5 7 -21
-1 -29 -8 -38 -36z"/>
<path d="M406 96 c-3 -13 -9 -32 -12 -43 -5 -12 -4 -15 3 -8 15 14 34 75 24
75 -5 0 -12 -11 -15 -24z"/>
<path d="M530 105 c-10 -12 -10 -19 -2 -27 17 -17 15 -28 -4 -28 -8 0 -12 -5
-9 -10 8 -14 45 6 45 24 0 8 -8 17 -17 20 -19 8 -8 22 22 29 19 4 19 5 -1 6
-12 0 -27 -6 -34 -14z"/>
<path d="M667 102 c-10 -10 -17 -28 -17 -39 0 -39 49 -37 70 2 25 47 -18 76
-53 37z m48 -2 c10 -16 -14 -50 -35 -50 -24 0 -26 23 -4 44 18 18 30 20 39 6z"/>
<path d="M742 88 c-11 -39 0 -58 29 -51 21 6 40 41 38 71 0 9 -6 1 -13 -18 -7
-19 -21 -37 -31 -38 -15 -3 -17 1 -11 32 9 45 0 47 -12 4z"/>
<path d="M829 93 c-5 -16 -12 -34 -14 -40 -2 -7 -1 -13 3 -13 5 0 14 15 20 34
7 19 21 37 30 39 12 3 11 5 -6 6 -16 1 -25 -7 -33 -26z"/>
<path d="M923 100 c-2 -8 -11 -32 -18 -52 -7 -21 -9 -38 -4 -38 5 0 9 6 9 14
0 8 11 14 27 14 30 0 53 25 53 59 0 20 -5 23 -31 21 -18 -1 -33 -9 -36 -18z
m57 -1 c0 -20 -21 -49 -35 -49 -22 0 -25 15 -9 38 16 23 44 30 44 11z"/>
<path d="M1114 109 c-4 -8 0 -9 15 -4 33 10 25 -9 -10 -22 -39 -15 -38 -50 1
-45 31 5 30 3 37 46 5 32 3 36 -15 36 -11 0 -24 -5 -28 -11z"/>
<path d="M1186 112 c-2 -4 -7 -23 -11 -42 l-6 -35 18 34 c21 41 38 49 47 24 3
-10 9 -24 12 -30 4 -8 -2 -13 -16 -13 -12 0 -18 -4 -15 -10 8 -14 18 -13 40 4
19 14 19 15 1 35 -18 20 -18 21 5 30 20 7 16 9 -23 9 -27 0 -50 -3 -52 -6z"/>
<path d="M1344 109 c-4 -8 0 -9 15 -4 12 4 21 2 21 -4 0 -6 -8 -11 -19 -11
-23 0 -45 -25 -38 -44 8 -21 54 -8 61 17 11 40 7 57 -13 57 -11 0 -23 -5 -27
-11z"/>
<path d="M1409 93 c-5 -16 -12 -34 -14 -40 -2 -7 -1 -13 4 -13 5 0 12 12 16
27 6 27 21 43 38 43 4 0 5 -17 2 -37 -4 -28 -3 -33 4 -18 5 11 10 30 10 43 1
35 -46 31 -60 -5z"/>
<path d="M1657 102 c-32 -35 -13 -84 24 -61 11 7 9 9 -8 9 -14 0 -23 6 -23 15
0 10 10 15 28 15 34 0 43 7 35 26 -7 20 -37 17 -56 -4z"/>
<path d="M1740 111 c0 -5 9 -7 20 -4 11 3 20 1 20 -5 0 -5 -13 -12 -29 -15
-30 -6 -49 -36 -30 -47 19 -13 50 2 60 27 15 40 11 53 -16 53 -14 0 -25 -4
-25 -9z"/>
<path d="M1896 98 c-30 -43 -14 -74 29 -57 17 7 16 8 -7 8 -39 1 -38 31 0 31
34 0 43 7 35 26 -8 21 -40 17 -57 -8z"/>
<path d="M1969 92 c-5 -15 -12 -33 -14 -39 -9 -27 11 -11 25 19 18 38 35 46
44 21 3 -10 9 -24 12 -30 4 -8 -2 -13 -16 -13 -12 0 -18 -4 -15 -10 9 -14 21
-12 40 6 15 15 15 18 -1 35 -16 18 -15 19 7 28 20 7 16 9 -24 9 -43 0 -49 -2
-58 -26z"/>
<path d="M2166 98 c-20 -28 -20 -42 -2 -57 19 -16 54 1 65 32 17 45 -35 65
-63 25z m52 -9 c-4 -27 -33 -48 -48 -33 -7 7 -5 17 6 32 20 29 46 29 42 1z"/>
<path d="M2249 93 c-5 -16 -12 -34 -14 -40 -2 -7 0 -13 5 -13 6 0 10 7 10 15
0 9 11 27 25 40 22 23 23 25 4 25 -12 0 -23 -10 -30 -27z"/>
<path d="M2472 82 c-15 -48 -7 -54 12 -8 20 49 40 48 32 -1 l-6 -38 17 34 c10
19 24 36 31 39 15 5 16 -22 2 -49 -6 -11 -7 -19 -1 -19 10 0 33 59 26 69 -2 4
-26 8 -53 9 -48 1 -49 0 -60 -36z"/>
<path d="M2606 98 c-31 -44 -8 -81 35 -58 20 11 35 52 24 69 -11 18 -43 12
-59 -11z m54 -6 c0 -23 -19 -42 -42 -42 -22 0 -23 23 -2 44 21 21 44 20 44 -2z"/>
<path d="M2689 92 c-5 -15 -12 -33 -14 -39 -2 -7 0 -13 5 -13 6 0 10 6 10 14
0 19 37 63 45 54 4 -4 3 -21 -3 -37 -7 -19 -7 -31 -1 -31 5 0 9 7 9 15 0 9 11
27 24 40 l23 23 -44 0 c-39 0 -45 -3 -54 -26z"/>
<path d="M2797 102 c-20 -22 -22 -58 -4 -65 35 -13 82 41 62 72 -10 17 -40 13
-58 -7z m49 -7 c8 -20 -13 -45 -37 -45 -23 0 -25 23 -3 44 19 20 33 20 40 1z"/>
<path d="M2875 84 c-3 -20 -4 -38 -1 -41 7 -7 26 6 26 18 0 6 -4 8 -8 5 -5 -3
-6 8 -4 25 6 42 -4 36 -13 -7z"/>
<path d="M2913 100 c-16 -24 -17 -33 -3 -25 6 3 10 -4 10 -16 0 -16 3 -19 13
-11 18 16 49 72 39 72 -5 0 -15 -12 -22 -27 l-13 -28 -6 28 c-6 27 -6 27 -18
7z"/>
</g>
</svg>
